<?xml version="1.0" encoding="UTF-8"?>
<svg id="Capa_1" data-name="Capa 1" xmlns="http://www.w3.org/2000/svg" viewBox="0 0 70.67 61.51">
  <defs>
    <style>
      .cls-1 {
        fill: #575756;
      }

      .cls-2 {
        fill: #5a1c27;
      }
    </style>
  </defs>
  <path class="cls-1" d="M16.23,19.89h36.29c1.54,0,2.94.63,3.94,1.64,1.02,1.02,1.65,2.42,1.65,3.95v20.77c0,1.54-.63,2.93-1.65,3.95-1.01,1.02-2.4,1.64-3.94,1.64l-10.94-.03c-2.02-.03-2.08-2.72,0-2.72l10.94.04c5.86-.41-11.84-29.13-36.29-26.53-.79,0-1.51.32-2.03.85-.52.52-.84,1.24-.84,2.03v20.77c0,.78.32,1.51.84,2.03.52.51,1.24.85,2.03.85h10.26c1.93.01,1.85,2.86,0,2.71h-10.26c-1.54,0-2.94-.63-3.95-1.64-1.01-1.02-1.64-2.41-1.64-3.95v-20.77c0-1.54.63-2.94,1.64-3.95,1.02-1.01,2.42-1.64,3.95-1.64h0Z"/>
  <path class="cls-2" d="M34.36,9.39c-9.61,0-17.41,7.8-17.41,17.41s17.41,24.36,17.41,24.36c0,0,17.42-14.73,17.42-24.36s-7.8-17.41-17.42-17.41ZM34.36,34.86c-4.45,0-8.07-3.61-8.07-8.07s3.61-8.06,8.07-8.06,8.07,3.61,8.07,8.06-3.61,8.07-8.07,8.07Z"/>
</svg>