<?xml version="1.0" encoding="UTF-8"?>
<svg id="Capa_1" data-name="Capa 1" xmlns="http://www.w3.org/2000/svg" viewBox="0 0 333.98 81.36">
  <defs>
    <style>
      .cls-1 {
        letter-spacing: -.04em;
      }

      .cls-1, .cls-2, .cls-3 {
        font-family: Gotham-Medium, Gotham;
        font-weight: 500;
      }

      .cls-1, .cls-3 {
        fill: #878787;
      }

      .cls-4, .cls-5 {
        fill: none;
        stroke: #878787;
        stroke-miterlimit: 10;
        stroke-width: 3px;
      }

      .cls-6 {
        fill: #1d1d1b;
      }

      .cls-7 {
        letter-spacing: 0em;
      }

      .cls-7, .cls-8, .cls-9, .cls-10, .cls-11 {
        font-family: Gotham-Black, Gotham;
        font-weight: 800;
      }

      .cls-7, .cls-8, .cls-9, .cls-10, .cls-11, .cls-12 {
        fill: #5b1c27;
      }

      .cls-8 {
        letter-spacing: 0em;
      }

      .cls-9 {
        letter-spacing: -.03em;
      }

      .cls-10 {
        letter-spacing: -.05em;
      }

      .cls-13 {
        font-size: 10px;
      }

      .cls-14, .cls-2 {
        fill: #575756;
      }

      .cls-5 {
        stroke-dasharray: 5.17 5.17;
      }

      .cls-15 {
        fill: #5a1c27;
      }
    </style>
  </defs>
  <path class="cls-12" d="M74.79,27.87h10.74l6.6,10.83,6.6-10.83h10.74v30.8h-10.25v-15.27l-7.08,10.96h-.18l-7.08-10.96v15.27h-10.08v-30.8Z"/>
  <path class="cls-14" d="M26.4,27.29h36.29c1.54,0,2.94.63,3.94,1.64,1.02,1.02,1.65,2.42,1.65,3.95v20.77c0,1.54-.63,2.93-1.65,3.95-1.01,1.02-2.4,1.64-3.94,1.64l-10.94-.03c-2.02-.03-2.08-2.72,0-2.72l10.94.04c5.86-.41-11.84-29.13-36.29-26.53-.79,0-1.51.32-2.03.85-.52.52-.84,1.24-.84,2.03v20.77c0,.78.32,1.51.84,2.03.52.51,1.24.85,2.03.85h10.26c1.93.01,1.85,2.86,0,2.71h-10.26c-1.54,0-2.94-.63-3.95-1.64-1.01-1.02-1.64-2.41-1.64-3.95v-20.77c0-1.54.63-2.94,1.64-3.95,1.02-1.01,2.42-1.64,3.95-1.64h0Z"/>
  <path class="cls-15" d="M129.22,27.23c-9.61,0-17.41,7.8-17.41,17.41s17.41,24.36,17.41,24.36c0,0,17.42-14.73,17.42-24.36s-7.8-17.41-17.42-17.41ZM129.22,52.71c-4.45,0-8.07-3.61-8.07-8.07s3.61-8.06,8.07-8.06,8.07,3.61,8.07,8.06-3.61,8.07-8.07,8.07Z"/>
  <g>
    <path class="cls-4" d="M40.76,44.65c0,.86.02,1.69.06,2.49"/>
    <path class="cls-5" d="M41.39,52.28c4.54,24.72,33.42,19.95,81.13,19.6"/>
    <path class="cls-4" d="M125.12,71.86c.83,0,1.66,0,2.5,0"/>
  </g>
  <g>
    <path class="cls-6" d="M150.13,28.33h10.59l6.51,10.67,6.51-10.67h10.59v30.37h-10.11v-15.06l-6.99,10.8h-.17l-6.99-10.8v15.06h-9.94v-30.37Z"/>
    <path class="cls-6" d="M187.81,28.33h25.9v8.33h-15.92v3.08h14.84v7.33h-14.84v3.3h16.14v8.33h-26.12v-30.37Z"/>
    <path class="cls-6" d="M215.55,43.6v-.09c0-9.07,7.07-15.84,16.14-15.84,6.72,0,11.19,3.25,13.75,7.9l-8.37,4.9c-1.17-2.21-2.73-3.69-5.51-3.69-3.43,0-5.68,2.99-5.68,6.64v.09c0,3.95,2.34,6.72,5.68,6.72,2.91,0,4.47-1.56,5.73-3.82l8.37,4.73c-2.56,4.51-6.86,8.2-14.36,8.2-8.42,0-15.75-6.33-15.75-15.75Z"/>
    <path class="cls-6" d="M257.7,28.11h10.06l12.8,30.59h-11.02l-1.6-4.08h-10.63l-1.56,4.08h-10.85l12.8-30.59ZM265.42,47.42l-2.78-7.38-2.78,7.38h5.55Z"/>
    <path class="cls-6" d="M280.28,45.08v-16.75h10.33v16.62c0,3.77,1.95,5.38,4.69,5.38s4.68-1.47,4.68-5.16v-16.83h10.33v16.53c0,10.37-6.03,14.45-15.1,14.45s-14.93-4.17-14.93-14.23Z"/>
  </g>
  <text class="cls-13" transform="translate(20.8 25.05)"><tspan class="cls-3" x="0" y="0">MONI</tspan><tspan class="cls-1" x="28.25" y="0">T</tspan><tspan class="cls-3" x="34.34" y="0">OREO DE</tspan><tspan class="cls-2" x="82.79" y="0"> </tspan><tspan class="cls-11" x="85.79" y="0">MEDI</tspan><tspan class="cls-10" x="112.08" y="0">D</tspan><tspan class="cls-7" x="119.24" y="0">A</tspan><tspan class="cls-11" x="127.09" y="0">S </tspan><tspan class="cls-8" x="136.61" y="0">C</tspan><tspan class="cls-9" x="143.86" y="0">A</tspan><tspan class="cls-11" x="151.53" y="0">UTELARES</tspan></text>
</svg>