<?xml version="1.0" encoding="UTF-8"?>
<svg id="Capa_1" data-name="Capa 1" xmlns="http://www.w3.org/2000/svg" viewBox="0 0 250.35 81.36">
  <defs>
    <style>
      .cls-1, .cls-2 {
        fill: none;
        stroke: #878787;
        stroke-miterlimit: 10;
        stroke-width: 3px;
      }

      .cls-3 {
        fill: #1d1d1b;
      }

      .cls-4 {
        fill: #575756;
      }

      .cls-2 {
        stroke-dasharray: 5.17 5.17;
      }

      .cls-5 {
        fill: #5a1c27;
      }

      .cls-6 {
        fill: #5b1c27;
      }

      .cls-7 {
        fill: #5e1e2a;
      }
    </style>
  </defs>
  <g>
    <path class="cls-6" d="M74.79,27.87h10.74l6.6,10.83,6.6-10.83h10.74v30.8h-10.25v-15.27l-7.08,10.96h-.18l-7.08-10.96v15.27h-10.08v-30.8Z"/>
    <path class="cls-3" d="M148.71,27.87h13.86c8.19,0,13.77,3.65,13.77,10.96v.09c0,7.44-5.68,11.4-13.99,11.4h-3.34v8.36h-10.3v-30.8ZM161.78,42.96c2.64,0,4.4-1.14,4.4-3.39v-.09c0-2.24-1.58-3.39-4.36-3.39h-2.82v6.86h2.77Z"/>
    <path class="cls-3" d="M178.54,27.87h26.27v8.45h-16.15v3.12h15.05v7.44h-15.05v3.34h16.37v8.45h-26.49v-30.8Z"/>
    <path class="cls-3" d="M207.8,27.87h9.64l10.96,13.6v-13.6h10.21v30.8h-9.15l-11.44-14.21v14.21h-10.21v-30.8Z"/>
  </g>
  <g>
    <path class="cls-7" d="M21.57,16.21h1.47l1.62,2.61,1.62-2.61h1.47v6.18h-1.35v-4.03l-1.74,2.64h-.04l-1.72-2.61v4.01h-1.33v-6.18Z"/>
    <path class="cls-7" d="M28.86,20.05v-.02c0-1.36,1.09-2.46,2.57-2.46s2.55,1.08,2.55,2.44v.02c0,1.36-1.09,2.46-2.57,2.46s-2.55-1.08-2.55-2.45ZM32.65,20.05v-.02c0-.7-.5-1.31-1.24-1.31s-1.23.58-1.23,1.29v.02c0,.7.5,1.31,1.24,1.31s1.23-.58,1.23-1.29Z"/>
    <path class="cls-7" d="M34.95,17.66h1.34v.67c.31-.4.71-.76,1.39-.76,1.02,0,1.61.66,1.61,1.76v3.06h-1.34v-2.64c0-.64-.29-.96-.81-.96s-.84.33-.84.96v2.64h-1.34v-4.73Z"/>
    <path class="cls-7" d="M40.47,15.95h1.41v1.19h-1.41v-1.19ZM40.51,17.66h1.34v4.73h-1.34v-4.73Z"/>
    <path class="cls-7" d="M43.33,21.05v-2.24h-.56v-1.15h.56v-1.21h1.34v1.21h1.11v1.15h-1.11v2.02c0,.31.14.46.43.46.24,0,.46-.05.66-.17v1.08c-.28.17-.61.27-1.06.27-.81,0-1.38-.33-1.38-1.42Z"/>
    <path class="cls-7" d="M46.41,20.05v-.02c0-1.36,1.09-2.46,2.57-2.46s2.55,1.08,2.55,2.44v.02c0,1.36-1.09,2.46-2.57,2.46s-2.55-1.08-2.55-2.45ZM50.21,20.05v-.02c0-.7-.5-1.31-1.24-1.31s-1.23.58-1.23,1.29v.02c0,.7.5,1.31,1.24,1.31s1.23-.58,1.23-1.29Z"/>
    <path class="cls-7" d="M52.5,17.66h1.34v.95c.27-.64.71-1.08,1.51-1.04v1.4h-.07c-.89,0-1.44.53-1.44,1.67v1.75h-1.34v-4.73Z"/>
    <path class="cls-7" d="M55.83,20.05v-.02c0-1.35.96-2.46,2.34-2.46,1.58,0,2.3,1.23,2.3,2.57,0,.11,0,.22-.02.35h-3.29c.13.61.56.93,1.16.93.45,0,.77-.14,1.15-.49l.77.68c-.45.56-1.08.88-1.93.88-1.42,0-2.47-1-2.47-2.45ZM59.17,19.65c-.08-.6-.43-1.01-1-1.01s-.92.4-1.02,1.01h2.02Z"/>
    <path class="cls-7" d="M61.24,20.05v-.02c0-1.36,1.09-2.46,2.57-2.46s2.55,1.08,2.55,2.44v.02c0,1.36-1.09,2.46-2.57,2.46s-2.55-1.08-2.55-2.45ZM65.04,20.05v-.02c0-.7-.5-1.31-1.24-1.31s-1.23.58-1.23,1.29v.02c0,.7.5,1.31,1.24,1.31s1.23-.58,1.23-1.29Z"/>
    <path class="cls-7" d="M70.12,16.21h2.52c1.47,0,2.37.87,2.37,2.14v.02c0,1.44-1.11,2.17-2.5,2.17h-1.03v1.85h-1.36v-6.18ZM72.56,19.33c.68,0,1.08-.41,1.08-.94v-.02c0-.61-.42-.94-1.1-.94h-1.05v1.89h1.08Z"/>
    <path class="cls-7" d="M75.6,20.05v-.02c0-1.35.96-2.46,2.34-2.46,1.58,0,2.3,1.23,2.3,2.57,0,.11,0,.22-.02.35h-3.29c.13.61.56.93,1.16.93.45,0,.77-.14,1.15-.49l.77.68c-.45.56-1.08.88-1.93.88-1.42,0-2.47-1-2.47-2.45ZM78.94,19.65c-.08-.6-.43-1.01-1-1.01s-.92.4-1.02,1.01h2.02Z"/>
    <path class="cls-7" d="M81.24,17.66h1.34v.67c.31-.4.71-.76,1.39-.76,1.02,0,1.61.66,1.61,1.76v3.06h-1.34v-2.64c0-.64-.29-.96-.81-.96s-.84.33-.84.96v2.64h-1.34v-4.73Z"/>
    <path class="cls-7" d="M86.77,15.95h1.41v1.19h-1.41v-1.19ZM86.8,17.66h1.34v4.73h-1.34v-4.73Z"/>
    <path class="cls-7" d="M89.62,21.05v-2.24h-.56v-1.15h.56v-1.21h1.34v1.21h1.11v1.15h-1.11v2.02c0,.31.14.46.43.46.24,0,.46-.05.66-.17v1.08c-.28.17-.61.27-1.06.27-.81,0-1.38-.33-1.38-1.42Z"/>
    <path class="cls-7" d="M92.71,20.05v-.02c0-1.35.96-2.46,2.34-2.46,1.58,0,2.3,1.23,2.3,2.57,0,.11,0,.22-.02.35h-3.29c.13.61.56.93,1.16.93.45,0,.77-.14,1.15-.49l.77.68c-.45.56-1.08.88-1.93.88-1.42,0-2.47-1-2.47-2.45ZM96.04,19.65c-.08-.6-.43-1.01-1-1.01s-.92.4-1.02,1.01h2.02Z"/>
    <path class="cls-7" d="M98.34,17.66h1.34v.67c.31-.4.71-.76,1.39-.76,1.02,0,1.61.66,1.61,1.76v3.06h-1.34v-2.64c0-.64-.29-.96-.81-.96s-.84.33-.84.96v2.64h-1.34v-4.73Z"/>
    <path class="cls-7" d="M103.61,20.05v-.02c0-1.35,1.03-2.46,2.48-2.46.89,0,1.44.3,1.89.79l-.82.88c-.31-.32-.59-.52-1.08-.52-.67,0-1.15.58-1.15,1.29v.02c0,.73.47,1.31,1.2,1.31.45,0,.76-.19,1.09-.5l.79.79c-.46.5-.99.87-1.93.87-1.42,0-2.46-1.1-2.46-2.45Z"/>
    <path class="cls-7" d="M108.91,15.95h1.41v1.19h-1.41v-1.19ZM108.94,17.66h1.34v4.73h-1.34v-4.73Z"/>
    <path class="cls-7" d="M111.27,21.03v-.02c0-1.02.79-1.51,1.91-1.51.49,0,.81.08,1.16.19v-.08c0-.56-.34-.87-1.01-.87-.52,0-.87.09-1.31.26l-.34-1.02c.52-.22,1.03-.38,1.84-.38.74,0,1.25.19,1.6.53.35.35.51.87.51,1.51v2.74h-1.3v-.51c-.33.36-.77.6-1.43.6-.89,0-1.62-.5-1.62-1.45ZM114.35,20.72v-.24c-.24-.11-.53-.18-.86-.18-.57,0-.93.23-.93.65v.02c0,.36.3.57.73.57.64,0,1.05-.34,1.05-.83Z"/>
    <path class="cls-7" d="M116.77,17.66h1.34v.95c.27-.64.71-1.08,1.51-1.04v1.4h-.07c-.89,0-1.44.53-1.44,1.67v1.75h-1.34v-4.73Z"/>
    <path class="cls-7" d="M120.49,15.95h1.41v1.19h-1.41v-1.19ZM120.52,17.66h1.34v4.73h-1.34v-4.73Z"/>
    <path class="cls-7" d="M122.9,20.05v-.02c0-1.36,1.09-2.46,2.57-2.46s2.55,1.08,2.55,2.44v.02c0,1.36-1.09,2.46-2.57,2.46s-2.55-1.08-2.55-2.45ZM126.69,20.05v-.02c0-.7-.5-1.31-1.24-1.31s-1.23.58-1.23,1.29v.02c0,.7.5,1.31,1.24,1.31s1.23-.58,1.23-1.29Z"/>
  </g>
  <path class="cls-4" d="M26.4,27.29h36.29c1.54,0,2.94.63,3.94,1.64,1.02,1.02,1.65,2.42,1.65,3.95v20.77c0,1.54-.63,2.93-1.65,3.95-1.01,1.02-2.4,1.64-3.94,1.64l-10.94-.03c-2.02-.03-2.08-2.72,0-2.72l10.94.04c5.86-.41-11.84-29.13-36.29-26.53-.79,0-1.51.32-2.03.85-.52.52-.84,1.24-.84,2.03v20.77c0,.78.32,1.51.84,2.03.52.51,1.24.85,2.03.85h10.26c1.93.01,1.85,2.86,0,2.71h-10.26c-1.54,0-2.94-.63-3.95-1.64-1.01-1.02-1.64-2.41-1.64-3.95v-20.77c0-1.54.63-2.94,1.64-3.95,1.02-1.01,2.42-1.64,3.95-1.64h0Z"/>
  <path class="cls-5" d="M129.22,27.23c-9.61,0-17.41,7.8-17.41,17.41s17.41,24.36,17.41,24.36c0,0,17.42-14.73,17.42-24.36s-7.8-17.41-17.42-17.41ZM129.22,52.71c-4.45,0-8.07-3.61-8.07-8.07s3.61-8.06,8.07-8.06,8.07,3.61,8.07,8.06-3.61,8.07-8.07,8.07Z"/>
  <g>
    <path class="cls-1" d="M40.76,44.65c0,.86.02,1.69.06,2.49"/>
    <path class="cls-2" d="M41.39,52.28c4.54,24.72,33.42,19.95,81.13,19.6"/>
    <path class="cls-1" d="M125.12,71.86c.83,0,1.66,0,2.5,0"/>
  </g>
</svg>