<?xml version="1.0" encoding="UTF-8"?>
<svg id="Capa_1" data-name="Capa 1" xmlns="http://www.w3.org/2000/svg" viewBox="0 0 333.98 81.36">
  <defs>
    <style>
      .cls-1, .cls-2 {
        fill: none;
        stroke: #878787;
        stroke-miterlimit: 10;
        stroke-width: 3px;
      }

      .cls-3 {
        fill: #1d1d1b;
      }

      .cls-4 {
        fill: #878787;
      }

      .cls-5 {
        fill: #575756;
      }

      .cls-2 {
        stroke-dasharray: 5.17 5.17;
      }

      .cls-6 {
        fill: #5a1c27;
      }

      .cls-7 {
        fill: #5b1c27;
      }
    </style>
  </defs>
  <path class="cls-7" d="M74.79,27.87h10.74l6.6,10.83,6.6-10.83h10.74v30.8h-10.25v-15.27l-7.08,10.96h-.18l-7.08-10.96v15.27h-10.08v-30.8Z"/>
  <path class="cls-5" d="M26.4,27.29h36.29c1.54,0,2.94.63,3.94,1.64,1.02,1.02,1.65,2.42,1.65,3.95v20.77c0,1.54-.63,2.93-1.65,3.95-1.01,1.02-2.4,1.64-3.94,1.64l-10.94-.03c-2.02-.03-2.08-2.72,0-2.72l10.94.04c5.86-.41-11.84-29.13-36.29-26.53-.79,0-1.51.32-2.03.85-.52.52-.84,1.24-.84,2.03v20.77c0,.78.32,1.51.84,2.03.52.51,1.24.85,2.03.85h10.26c1.93.01,1.85,2.86,0,2.71h-10.26c-1.54,0-2.94-.63-3.95-1.64-1.01-1.02-1.64-2.41-1.64-3.95v-20.77c0-1.54.63-2.94,1.64-3.95,1.02-1.01,2.42-1.64,3.95-1.64h0Z"/>
  <path class="cls-6" d="M129.22,27.23c-9.61,0-17.41,7.8-17.41,17.41s17.41,24.36,17.41,24.36c0,0,17.42-14.73,17.42-24.36s-7.8-17.41-17.42-17.41ZM129.22,52.71c-4.45,0-8.07-3.61-8.07-8.07s3.61-8.06,8.07-8.06,8.07,3.61,8.07,8.06-3.61,8.07-8.07,8.07Z"/>
  <g>
    <path class="cls-1" d="M40.76,44.65c0,.86.02,1.69.06,2.49"/>
    <path class="cls-2" d="M41.39,52.28c4.54,24.72,33.42,19.95,81.13,19.6"/>
    <path class="cls-1" d="M125.12,71.86c.83,0,1.66,0,2.5,0"/>
  </g>
  <g>
    <path class="cls-3" d="M150.13,28.33h10.59l6.51,10.67,6.51-10.67h10.59v30.37h-10.11v-15.06l-6.99,10.8h-.17l-6.99-10.8v15.06h-9.94v-30.37Z"/>
    <path class="cls-3" d="M187.81,28.33h25.9v8.33h-15.92v3.08h14.84v7.33h-14.84v3.3h16.14v8.33h-26.12v-30.37Z"/>
    <path class="cls-3" d="M215.55,43.6v-.09c0-9.07,7.07-15.84,16.14-15.84,6.72,0,11.19,3.25,13.75,7.9l-8.37,4.9c-1.17-2.21-2.73-3.69-5.51-3.69-3.43,0-5.68,2.99-5.68,6.64v.09c0,3.95,2.34,6.72,5.68,6.72,2.91,0,4.47-1.56,5.73-3.82l8.37,4.73c-2.56,4.51-6.86,8.2-14.36,8.2-8.42,0-15.75-6.33-15.75-15.75Z"/>
    <path class="cls-3" d="M257.7,28.11h10.06l12.8,30.59h-11.02l-1.6-4.08h-10.63l-1.56,4.08h-10.85l12.8-30.59ZM265.42,47.42l-2.78-7.38-2.78,7.38h5.55Z"/>
    <path class="cls-3" d="M280.28,45.08v-16.75h10.33v16.62c0,3.77,1.95,5.38,4.69,5.38s4.68-1.47,4.68-5.16v-16.83h10.33v16.53c0,10.37-6.03,14.45-15.1,14.45s-14.93-4.17-14.93-14.23Z"/>
  </g>
  <g>
    <path class="cls-4" d="M21.7,18.06h1.31l2.13,3.31,2.13-3.31h1.31v7h-1.23v-5.02l-2.21,3.3h-.04l-2.19-3.28v5h-1.21v-7Z"/>
    <path class="cls-4" d="M30.07,21.57v-.02c0-1.96,1.52-3.62,3.67-3.62s3.65,1.63,3.65,3.6v.02c0,1.96-1.52,3.62-3.67,3.62s-3.65-1.63-3.65-3.6ZM36.1,21.57v-.02c0-1.36-.98-2.48-2.38-2.48s-2.36,1.1-2.36,2.46v.02c0,1.36.98,2.48,2.38,2.48s2.36-1.1,2.36-2.46Z"/>
    <path class="cls-4" d="M38.88,18.06h1.14l3.75,4.84v-4.84h1.21v7h-1.03l-3.86-4.98v4.98h-1.21v-7Z"/>
    <path class="cls-4" d="M46.85,18.06h1.23v7h-1.23v-7Z"/>
    <path class="cls-4" d="M51.66,19.2h-2.23v-1.14h5.69v1.14h-2.23v5.86h-1.23v-5.86Z"/>
    <path class="cls-4" d="M55.73,21.57v-.02c0-1.96,1.52-3.62,3.67-3.62s3.65,1.63,3.65,3.6v.02c0,1.96-1.52,3.62-3.67,3.62s-3.65-1.63-3.65-3.6ZM61.76,21.57v-.02c0-1.36-.98-2.48-2.38-2.48s-2.36,1.1-2.36,2.46v.02c0,1.36.98,2.48,2.38,2.48s2.36-1.1,2.36-2.46Z"/>
    <path class="cls-4" d="M64.54,18.06h3.12c.88,0,1.57.26,2.02.7.37.39.58.9.58,1.51v.02c0,1.15-.69,1.84-1.66,2.12l1.89,2.65h-1.46l-1.72-2.44h-1.54v2.44h-1.23v-7ZM67.57,21.53c.88,0,1.44-.45,1.44-1.17v-.02c0-.76-.53-1.16-1.45-1.16h-1.79v2.35h1.8Z"/>
    <path class="cls-4" d="M71.77,18.06h5.19v1.1h-3.96v1.82h3.51v1.11h-3.51v1.87h4.01v1.1h-5.24v-7Z"/>
    <path class="cls-4" d="M78.16,21.57v-.02c0-1.96,1.52-3.62,3.67-3.62s3.65,1.63,3.65,3.6v.02c0,1.96-1.52,3.62-3.67,3.62s-3.65-1.63-3.65-3.6ZM84.19,21.57v-.02c0-1.36-.98-2.48-2.38-2.48s-2.36,1.1-2.36,2.46v.02c0,1.36.98,2.48,2.38,2.48s2.36-1.1,2.36-2.46Z"/>
    <path class="cls-4" d="M89.97,18.06h2.61c2.2,0,3.72,1.51,3.72,3.48v.02c0,1.97-1.52,3.5-3.72,3.5h-2.61v-7ZM91.2,19.18v4.76h1.38c1.47,0,2.43-.99,2.43-2.36v-.02c0-1.37-.96-2.38-2.43-2.38h-1.38Z"/>
    <path class="cls-4" d="M97.79,18.06h5.19v1.1h-3.96v1.82h3.51v1.11h-3.51v1.87h4.01v1.1h-5.24v-7Z"/>
    <path class="cls-7" d="M107.21,18.06h2.05l1.67,2.71,1.67-2.71h2.05v7h-1.93v-4.02l-1.79,2.74h-.04l-1.78-2.73v4.01h-1.9v-7Z"/>
    <path class="cls-7" d="M115.89,18.06h5.63v1.64h-3.71v1.07h3.36v1.53h-3.36v1.11h3.76v1.65h-5.68v-7Z"/>
    <path class="cls-7" d="M122.57,18.06h2.71c2.49,0,3.94,1.43,3.94,3.46v.02c0,2.03-1.47,3.52-3.98,3.52h-2.67v-7ZM124.51,19.77v3.57h.79c1.17,0,1.94-.64,1.94-1.77v-.02c0-1.13-.77-1.78-1.94-1.78h-.79Z"/>
    <path class="cls-7" d="M130.28,18.06h1.94v7h-1.94v-7Z"/>
    <path class="cls-7" d="M133.5,18.06h2.71c2.49,0,3.94,1.43,3.94,3.46v.02c0,2.03-1.47,3.52-3.98,3.52h-2.67v-7ZM135.44,19.77v3.57h.79c1.17,0,1.94-.64,1.94-1.77v-.02c0-1.13-.77-1.78-1.94-1.78h-.79Z"/>
    <path class="cls-7" d="M143.08,18.01h1.87l2.98,7.05h-2.08l-.5-1.26h-2.71l-.5,1.26h-2.03l2.97-7.05ZM144.78,22.28l-.78-1.98-.79,1.98h1.57Z"/>
    <path class="cls-7" d="M147.98,24.01l1.08-1.29c.71.56,1.47.84,2.27.84.53,0,.81-.17.81-.48v-.02c0-.3-.23-.44-1.19-.68-1.48-.34-2.64-.75-2.64-2.19v-.02c0-1.31,1.03-2.24,2.71-2.24,1.2,0,2.12.32,2.88.93l-.97,1.37c-.64-.47-1.33-.69-1.96-.69-.47,0-.7.18-.7.45v.02c0,.31.24.47,1.22.68,1.6.35,2.6.87,2.6,2.18v.02c0,1.43-1.13,2.28-2.83,2.28-1.25,0-2.4-.39-3.28-1.16Z"/>
    <path class="cls-7" d="M157.8,21.57v-.02c0-2.04,1.56-3.64,3.68-3.64,1.42,0,2.36.6,2.97,1.45l-1.46,1.13c-.4-.49-.85-.82-1.53-.82-.98,0-1.67.84-1.67,1.86v.02c0,1.05.69,1.87,1.67,1.87.73,0,1.15-.34,1.58-.85l1.46,1.04c-.67.91-1.55,1.58-3.09,1.58-2,0-3.61-1.53-3.61-3.62Z"/>
    <path class="cls-7" d="M167.7,18.01h1.87l2.98,7.05h-2.08l-.5-1.26h-2.71l-.5,1.26h-2.03l2.97-7.05ZM169.4,22.28l-.78-1.98-.79,1.98h1.57Z"/>
    <path class="cls-7" d="M172.87,21.98v-3.93h1.96v3.89c0,1.01.5,1.49,1.29,1.49s1.3-.45,1.3-1.44v-3.94h1.96v3.88c0,2.25-1.29,3.25-3.28,3.25s-3.23-1-3.23-3.2Z"/>
    <path class="cls-7" d="M182.24,19.76h-2.09v-1.7h6.13v1.7h-2.1v5.3h-1.94v-5.3Z"/>
    <path class="cls-7" d="M187.13,18.06h5.63v1.64h-3.71v1.07h3.36v1.53h-3.36v1.11h3.76v1.65h-5.68v-7Z"/>
    <path class="cls-7" d="M193.81,18.06h1.94v5.3h3.39v1.7h-5.33v-7Z"/>
    <path class="cls-7" d="M202.4,18.01h1.87l2.98,7.05h-2.08l-.5-1.26h-2.71l-.5,1.26h-2.03l2.97-7.05ZM204.1,22.28l-.78-1.98-.79,1.98h1.57Z"/>
    <path class="cls-7" d="M207.93,18.06h3.31c1.08,0,1.81.28,2.28.75.41.41.62.96.62,1.63v.02c0,1.08-.56,1.79-1.44,2.16l1.67,2.44h-2.23l-1.41-2.12h-.86v2.12h-1.94v-7ZM211.16,21.41c.65,0,1.04-.32,1.04-.83v-.02c0-.56-.41-.84-1.05-.84h-1.28v1.69h1.29Z"/>
    <path class="cls-7" d="M215.12,18.06h5.63v1.64h-3.71v1.07h3.36v1.53h-3.36v1.11h3.76v1.65h-5.68v-7Z"/>
    <path class="cls-7" d="M221.27,24.01l1.08-1.29c.71.56,1.47.84,2.27.84.53,0,.81-.17.81-.48v-.02c0-.3-.23-.44-1.19-.68-1.48-.34-2.64-.75-2.64-2.19v-.02c0-1.31,1.03-2.24,2.71-2.24,1.2,0,2.12.32,2.88.93l-.97,1.37c-.64-.47-1.33-.69-1.96-.69-.47,0-.7.18-.7.45v.02c0,.31.24.47,1.22.68,1.6.35,2.6.87,2.6,2.18v.02c0,1.43-1.13,2.28-2.83,2.28-1.25,0-2.4-.39-3.28-1.16Z"/>
  </g>
</svg>